<svg version="1.1" id="Layer_1" xmlns="http://www.w3.org/2000/svg" xmlns:xlink="http://www.w3.org/1999/xlink" x="0px" y="0px"
	 width="100%" viewBox="0 0 113 113" enable-background="new 0 0 113 113" xml:space="preserve">
<path fill="#000000" opacity="1.000000" stroke="none"
	d="
M58.000000,114.000000
	C38.666668,114.000000 19.833334,114.000000 1.000000,114.000000
	C1.000000,76.333336 1.000000,38.666668 1.000000,1.000000
	C38.666668,1.000000 76.333336,1.000000 114.000000,1.000000
	C114.000000,38.666668 114.000000,76.333336 114.000000,114.000000
	C95.500000,114.000000 77.000000,114.000000 58.000000,114.000000
M31.684988,56.959545
	C32.488873,57.019176 33.292759,57.078812 34.096645,57.138443
	C33.609650,57.361961 33.122658,57.585480 32.635662,57.808994
	C33.732067,61.360394 34.044350,65.487389 36.122353,68.318237
	C38.749969,71.897820 43.254631,72.754265 47.806458,71.664276
	C52.800510,70.468391 54.074322,66.267662 54.903564,62.182884
	C56.047710,56.546894 54.951290,55.615990 49.252663,56.034687
	C48.307209,56.104153 47.352268,56.044476 45.946976,56.044476
	C45.946976,58.257847 46.132053,60.079159 45.859108,61.829029
	C45.744251,62.565365 44.756805,63.399757 43.978085,63.696671
	C43.605312,63.838802 42.657436,62.934708 42.206623,62.328510
	C40.436668,59.948509 38.760868,57.498489 37.808285,54.965775
	C38.685802,52.751469 39.563320,50.537163 40.440838,48.322857
	C39.963955,47.966667 39.487068,47.610477 39.010181,47.254288
	C36.537918,47.783710 34.074245,48.359074 31.589817,48.823414
	C30.323034,49.060173 29.018991,49.097572 27.731791,49.225082
	C27.999983,47.813332 27.775074,45.752644 28.625170,45.106701
	C31.654266,42.805027 35.196949,41.182140 38.244305,38.900417
	C39.825840,37.716240 40.776077,35.688931 42.011501,34.042507
	C40.409752,33.031586 38.668671,30.990051 37.229893,31.184568
	C30.255867,32.127441 23.935783,34.668930 20.780470,41.674168
	C16.041796,52.194672 18.301514,62.192284 23.342747,71.937798
	C24.512547,74.199211 25.510101,75.845535 28.619680,74.253220
	C31.628996,72.712257 32.352345,71.103920 30.716520,68.103973
	C29.564856,65.991928 29.033512,63.549866 27.976545,61.376053
	C26.327707,57.984974 27.862833,56.924263 31.684988,56.959545
M64.422295,88.057098
	C67.529358,83.880859 72.119392,80.098793 73.361206,75.426773
	C74.851692,69.819168 77.574730,69.519943 81.749626,70.348587
	C88.145805,71.618111 94.258720,70.852341 100.224449,68.398567
	C102.779663,67.347580 104.204613,66.024643 101.894241,63.250973
	C100.941902,62.107681 100.506310,60.533958 99.977295,59.446995
	C95.491905,61.111160 91.456581,62.608349 86.398064,64.485153
	C88.978195,60.450653 91.475548,57.687290 92.622940,54.446037
	C93.894577,50.853840 92.993034,46.967907 89.108040,45.142654
	C87.183960,44.238682 84.650063,44.063251 82.491341,44.338070
	C76.701904,45.075100 75.288773,50.024204 73.763809,56.056591
	C72.462547,48.417957 68.114960,44.552715 63.155586,45.050514
	C59.505878,45.416859 55.825222,45.473869 52.158566,45.672604
	C49.784832,45.801258 47.411484,45.936905 44.730583,46.086575
	C45.316654,47.510380 45.909676,48.264687 45.879749,48.993404
	C45.723705,52.792759 46.563164,54.279972 51.036369,53.193836
	C54.917969,52.251350 59.209652,52.997787 63.320095,52.997787
	C60.317932,55.179485 56.512356,56.313553 58.022285,60.472744
	C58.985104,63.124901 61.628361,65.167000 63.550747,67.522560
	C61.238949,68.872162 58.484119,70.279869 55.944870,72.004898
	C50.799438,75.500435 49.045364,83.519905 52.601929,87.049156
	C55.936195,90.357819 59.656193,90.940460 64.422295,88.057098
z"/>
<path fill="#E14134" opacity="1.000000" stroke="none"
	d="
M64.035690,88.094772
	C59.656193,90.940460 55.936195,90.357819 52.601929,87.049156
	C49.045364,83.519905 50.799438,75.500435 55.944870,72.004898
	C58.484119,70.279869 61.238949,68.872162 63.550747,67.522560
	C61.628361,65.167000 58.985104,63.124901 58.022285,60.472744
	C56.512356,56.313553 60.317932,55.179485 63.320095,52.997787
	C59.209652,52.997787 54.917969,52.251350 51.036369,53.193836
	C46.563164,54.279972 45.723705,52.792759 45.879749,48.993404
	C45.909676,48.264687 45.316654,47.510380 44.730583,46.086575
	C47.411484,45.936905 49.784832,45.801258 52.158566,45.672604
	C55.825222,45.473869 59.505878,45.416859 63.155586,45.050514
	C68.114960,44.552715 72.462547,48.417957 73.763809,56.056591
	C75.288773,50.024204 76.701904,45.075100 82.491341,44.338070
	C84.650063,44.063251 87.183960,44.238682 89.108040,45.142654
	C92.993034,46.967907 93.894577,50.853840 92.622940,54.446037
	C91.475548,57.687290 88.978195,60.450653 86.398064,64.485153
	C91.456581,62.608349 95.491905,61.111160 99.977295,59.446995
	C100.506310,60.533958 100.941902,62.107681 101.894241,63.250973
	C104.204613,66.024643 102.779663,67.347580 100.224449,68.398567
	C94.258720,70.852341 88.145805,71.618111 81.749626,70.348587
	C77.574730,69.519943 74.851692,69.819168 73.361206,75.426773
	C72.119392,80.098793 67.529358,83.880859 64.035690,88.094772
z"/>
<path fill="#E04337" opacity="1.000000" stroke="none"
	d="
M30.995173,56.809677
	C27.862833,56.924263 26.327707,57.984974 27.976545,61.376053
	C29.033512,63.549866 29.564856,65.991928 30.716520,68.103973
	C32.352345,71.103920 31.628996,72.712257 28.619680,74.253220
	C25.510101,75.845535 24.512547,74.199211 23.342747,71.937798
	C18.301514,62.192284 16.041796,52.194672 20.780470,41.674168
	C23.935783,34.668930 30.255867,32.127441 37.229893,31.184568
	C38.668671,30.990051 40.409752,33.031586 42.011501,34.042507
	C40.776077,35.688931 39.825840,37.716240 38.244305,38.900417
	C35.196949,41.182140 31.654266,42.805027 28.625170,45.106701
	C27.775074,45.752644 27.999983,47.813332 27.731791,49.225082
	C29.018991,49.097572 30.323034,49.060173 31.589817,48.823414
	C34.074245,48.359074 36.537918,47.783710 39.010181,47.254288
	C39.487068,47.610477 39.963955,47.966667 40.440838,48.322857
	C39.563320,50.537163 38.685802,52.751469 37.147263,54.869484
	C34.655880,55.452023 32.825527,56.130852 30.995173,56.809677
z"/>
<path fill="#E04438" opacity="1.000000" stroke="none"
	d="
M31.340080,56.884613
	C32.825527,56.130852 34.655880,55.452023 36.768169,54.923836
	C38.760868,57.498489 40.436668,59.948509 42.206623,62.328510
	C42.657436,62.934708 43.605312,63.838802 43.978085,63.696671
	C44.756805,63.399757 45.744251,62.565365 45.859108,61.829029
	C46.132053,60.079159 45.946976,58.257847 45.946976,56.044476
	C47.352268,56.044476 48.307209,56.104153 49.252663,56.034687
	C54.951290,55.615990 56.047710,56.546894 54.903564,62.182884
	C54.074322,66.267662 52.800510,70.468391 47.806458,71.664276
	C43.254631,72.754265 38.749969,71.897820 36.122353,68.318237
	C34.044350,65.487389 33.732067,61.360394 32.635662,57.808994
	C33.122658,57.585480 33.609650,57.361961 34.096645,57.138443
	C33.292759,57.078812 32.488873,57.019176 31.340080,56.884613
z"/>
</svg>
